<svg xmlns="http://www.w3.org/2000/svg" aria-hidden="true" focusable="false" role="img" viewBox="0 0 216.92 31.62" class="inline-block" width="100" height="44" color="#63489a"><g><g><path fill="#FFFFFF" d="M170.33,30.15H165.8a.36.36,0,0,1-.36-.36V1a.43.43,0,0,1,.36-.4h4.53a.43.43,0,0,1,.39.4V29.79A.37.37,0,0,1,170.33,30.15Z"></path><path fill="#FFFFFF" d="M201.55,30.7a15.35,15.35,0,1,1,15.37-15.33A15.33,15.33,0,0,1,201.55,30.7Zm0-26.09C196,4.61,191.5,9.3,191.5,15.37s4.46,10.8,10.05,10.8,10-4.73,10-10.8S207.11,4.61,201.55,4.61Z"></path><rect fill="#63489a" y="0.52" width="144.45" height="31.1"></rect></g></g></svg>